<svg xmlns:dc="http://purl.org/dc/elements/1.1/" xmlns:cc="http://creativecommons.org/ns#" xmlns:rdf="http://www.w3.org/1999/02/22-rdf-syntax-ns#" xmlns:svg="http://www.w3.org/2000/svg" xmlns="http://www.w3.org/2000/svg" xmlns:sodipodi="http://sodipodi.sourceforge.net/DTD/sodipodi-0.dtd" xmlns:inkscape="http://www.inkscape.org/namespaces/inkscape" version="1.1" x="0px" y="0px" viewBox="0 0 100 100"><g transform="translate(0,-952.36218)"><path style="color:#000000;enable-background:accumulate;" d="m 8.0106204,962.36226 c -1.1046,0 -2,0.89543 -2,2 0,1.10457 0.8954,2 2,2 l 10.3749996,0 10.5312,49.81254 c -0.10737,1.1395 0.9507,2.245 2.0938,2.1875 l 49.999997,0 c 1.05663,0.015 2.0285,-0.9432 2.0285,-2 0,-1.0567 -0.97187,-2.0149 -2.0285,-2 l -48.374997,0 -1.6875,-8 54.062497,0 c 0.89546,-0.01 1.74157,-0.6887 1.9375,-1.5625 l 7,-30.00003 c 0.26009,-1.16072 -0.74802,-2.429 -1.9375,-2.4375 l -68.249997,0 -1.7812,-8.43751 c -0.19821,-0.88398 -1.06291,-1.57023 -1.9688,-1.5625 z m 16.5937996,14.00001 64.906197,0 -6.0938,26.00003 -53.312397,0 z m 17.4062,47.99993 c -4.9468,0 -9,4.0531 -9,9 0,4.9469 4.0532,9 9,9 4.9469,0 9,-4.0531 9,-9 0,-4.9469 -4.0531,-9 -9,-9 z m 28,0 c -4.9468,0 -9,4.0531 -9,9 0,4.9469 4.0532,9 9,9 4.946897,0 8.999997,-4.0531 8.999997,-9 0,-4.9469 -4.0531,-9 -8.999997,-9 z m -28,4 c 2.7851,0 5,2.2149 5,5 0,2.7851 -2.2149,5 -5,5 -2.785,0 -5,-2.2149 -5,-5 0,-2.7851 2.215,-5 5,-5 z m 28,0 c 2.785097,0 4.999997,2.2149 4.999997,5 0,2.7851 -2.2149,5 -4.999997,5 -2.785,0 -5,-2.2149 -5,-5 0,-2.7851 2.215,-5 5,-5 z" fill="#000000" stroke="none" marker="none" visibility="visible" display="inline" overflow="visible"></path></g></svg>